<?xml version="1.0" encoding="UTF-8"?>
<svg width="504px" height="268px" viewBox="0 0 504 268" version="1.1" xmlns="http://www.w3.org/2000/svg" xmlns:xlink="http://www.w3.org/1999/xlink">
    <!-- Generator: Sketch 42 (36781) - http://www.bohemiancoding.com/sketch -->
    <title>landing1</title>
    <desc>Created with Sketch.</desc>
    <defs>
        <polygon id="path-1" points="0.338 0.638 0.394 0.451 0.462 0.45"></polygon>
        <polygon id="path-3" points="0.038 0.429 0.148 0.263 0.395 0.427"></polygon>
        <path d="M0.889,0.695 L0.694,0.495 L0.793,0.494 C0.835,0.524 0.879,0.554 0.922,0.583 L0.889,0.695 Z" id="path-5"></path>
        <polygon id="path-7" points="0.785 0.502 0.826 0.366 1.267 0.499"></polygon>
        <path d="M0.514,1.737 C0.65,1.361 0.776,0.987 0.889,0.616 L1.478,0.613 C1.379,0.984 1.27,1.356 1.149,1.733 L0.514,1.737 Z" id="path-9"></path>
        <polygon id="path-11" points="4.586 8.358 0.456 0.496 85.8 0.031 87.044 7.909"></polygon>
    </defs>
    <g id="Page-1" stroke="none" stroke-width="1" fill="none" fill-rule="evenodd">
        <g id="landing1">
            <polyline id="Fill-5" fill="#FFFFFF" points="114.354 45.418 78.757 99.317 162.493 154.619 203.621 92.346 128.259 42.574 114.354 45.418"></polyline>
            <polyline id="Fill-6" fill="#E7E7E3" points="130.316 88.958 112.872 115.371 85.386 97.218 102.83 70.806 130.316 88.958"></polyline>
            <polyline id="Fill-7" fill="#E7E7E3" points="154.271 66.229 119.099 119.484 116.952 118.066 152.123 64.811 154.271 66.229"></polyline>
            <polyline id="Fill-8" fill="#E7E7E3" points="158.899 69.286 123.728 122.54 121.58 121.122 156.751 67.868 158.899 69.286"></polyline>
            <polyline id="Fill-9" fill="#E7E7E3" points="163.527 72.342 128.356 125.597 126.208 124.179 161.379 70.924 163.527 72.342"></polyline>
            <polyline id="Fill-10" fill="#E7E7E3" points="168.155 75.399 132.984 128.653 130.836 127.235 166.007 73.981 168.155 75.399"></polyline>
            <polyline id="Fill-11" fill="#E7E7E3" points="172.783 78.455 137.612 131.71 135.464 130.292 170.635 77.037 172.783 78.455"></polyline>
            <polyline id="Fill-12" fill="#E7E7E3" points="177.411 81.512 142.24 134.767 140.092 133.348 175.263 80.094 177.411 81.512"></polyline>
            <polyline id="Fill-13" fill="#E7E7E3" points="182.039 84.568 146.868 137.823 144.72 136.405 179.892 83.15 182.039 84.568"></polyline>
            <polyline id="Fill-14" fill="#E7E7E3" points="186.667 87.625 151.496 140.88 149.348 139.461 184.52 86.207 186.667 87.625"></polyline>
            <polyline id="Fill-15" fill="#E7E7E3" points="191.295 90.682 156.124 143.936 153.977 142.518 189.148 89.263 191.295 90.682"></polyline>
            <polyline id="Fill-16" fill="#E7E7E3" points="195.923 93.738 160.752 146.993 158.605 145.575 193.776 92.32 195.923 93.738"></polyline>
            <path d="M132.32,70.702 C131.112,72.331 129.671,73.435 129.671,73.435 L126.421,71.289 L127.537,69.6 L129.096,70.234 C129.096,70.234 129.838,69.828 130.481,68.855 C131.208,67.753 131.417,66.52 130.536,65.938 C129.64,65.347 128.577,66.32 127.289,67.292 C125.75,68.455 123.89,69.617 121.611,68.112 C119.702,66.851 119.376,64.79 120.239,62.724 L118.073,61.293 L119.37,59.329 L121.463,60.711 C122.635,59.217 124.016,58.284 124.016,58.284 L126.978,60.346 L125.936,61.924 L124.347,61.376 C124.347,61.376 123.562,61.965 123.101,62.663 C122.325,63.838 122.421,64.771 123.082,65.207 C123.974,65.797 125.064,64.827 126.368,63.857 C127.907,62.711 129.744,61.566 131.902,62.991 C133.958,64.349 134.352,66.507 133.507,68.665 L136.095,70.375 L134.798,72.339 L132.32,70.702" id="Fill-17" fill="#E7E7E3"></path>
            <polyline id="Fill-18" fill="#F5F3F0" points="114.354 45.418 128.259 42.574 122.729 50.949 114.354 45.418"></polyline>
            <polyline id="Fill-19" fill="#FFFFFF" points="87.277 67.26 68.667 129.113 164.761 158.027 186.263 86.562 99.78 60.541 87.277 67.26"></polyline>
            <polyline id="Fill-20" fill="#E7E7E3" points="115.076 104.379 105.956 134.69 74.413 125.199 83.533 94.888 115.076 104.379"></polyline>
            <polyline id="Fill-21" fill="#E7E7E3" points="131.49 75.726 113.102 136.84 110.638 136.098 129.026 74.984 131.49 75.726"></polyline>
            <polyline id="Fill-22" fill="#E7E7E3" points="136.801 77.324 118.413 138.438 115.949 137.696 134.337 76.582 136.801 77.324"></polyline>
            <polyline id="Fill-23" fill="#E7E7E3" points="142.112 78.922 123.724 140.036 121.26 139.294 139.648 78.18 142.112 78.922"></polyline>
            <polyline id="Fill-24" fill="#E7E7E3" points="147.424 80.52 129.035 141.634 126.571 140.892 144.959 79.778 147.424 80.52"></polyline>
            <polyline id="Fill-25" fill="#E7E7E3" points="152.735 82.118 134.347 143.232 131.882 142.49 150.27 81.376 152.735 82.118"></polyline>
            <polyline id="Fill-26" fill="#E7E7E3" points="158.046 83.716 139.658 144.83 137.193 144.088 155.582 82.974 158.046 83.716"></polyline>
            <polyline id="Fill-27" fill="#E7E7E3" points="163.357 85.314 144.969 146.428 142.504 145.686 160.893 84.572 163.357 85.314"></polyline>
            <polyline id="Fill-28" fill="#E7E7E3" points="168.668 86.912 150.28 148.026 147.815 147.284 166.204 86.17 168.668 86.912"></polyline>
            <polyline id="Fill-29" fill="#E7E7E3" points="173.979 88.51 155.591 149.624 153.127 148.882 171.515 87.768 173.979 88.51"></polyline>
            <polyline id="Fill-30" fill="#E7E7E3" points="179.29 90.108 160.902 151.222 158.438 150.48 176.826 89.366 179.29 90.108"></polyline>
            <path d="M111.75,86.316 C111.061,88.223 109.998,89.695 109.998,89.695 L106.269,88.573 L106.852,86.635 L108.527,86.794 C108.527,86.794 109.122,86.192 109.458,85.076 C109.838,83.811 109.683,82.57 108.672,82.266 C106.418,81.587 105.553,88.358 100.749,86.912 C98.558,86.253 97.653,84.372 97.887,82.145 L95.401,81.397 L96.079,79.143 L98.481,79.866 C99.173,78.098 100.228,76.807 100.228,76.807 L103.658,77.931 L103.113,79.743 L101.433,79.674 C101.433,79.674 100.851,80.464 100.61,81.265 C100.205,82.613 100.564,83.479 101.323,83.707 C103.556,84.379 104.562,77.675 109.134,79.05 C111.494,79.76 112.491,81.715 112.302,84.024 L115.272,84.918 L114.594,87.172 L111.75,86.316" id="Fill-31" fill="#E7E7E3"></path>
            <polyline id="Fill-32" fill="#F5F3F0" points="87.277 67.26 99.78 60.541 96.888 70.152 87.277 67.26"></polyline>
            <path d="M113.037,208.856 C113.601,210.188 112.974,211.746 111.642,212.314 L43.84,241.183 C42.508,241.753 40.95,241.125 40.386,239.793 L0.774,146.767 C0.206,145.433 0.83,143.879 2.164,143.311 L69.959,114.44 C71.297,113.874 72.859,114.495 73.423,115.833 L113.037,208.856" id="Fill-33" fill="#3B3F47"></path>
            <path d="M46.835,234.762 C44.922,235.575 42.687,234.678 41.872,232.763 L7.069,151.035 C6.254,149.12 7.154,146.883 9.071,146.065 L67.169,121.326 C69.082,120.509 71.319,121.413 72.134,123.326 L106.937,205.055 C107.756,206.974 106.855,209.205 104.94,210.022 L46.835,234.762" id="Fill-34" fill="#B6B8B5"></path>
            <path d="M46.558,234.107 C44.643,234.921 42.41,234.022 41.591,232.104 L6.792,150.379 C5.973,148.46 6.877,146.225 8.79,145.409 L66.888,120.672 C68.805,119.856 71.04,120.757 71.856,122.67 L106.657,204.399 C107.475,206.316 106.574,208.551 104.659,209.367 L46.558,234.107" id="Fill-35" fill="#CDCFCA"></path>
            <path d="M6.508,149.723 L7.125,151.171 C6.304,149.254 7.208,147.024 9.123,146.205 L67.224,121.466 C69.137,120.649 71.374,121.549 72.19,123.464 L71.571,122.02 C70.759,120.105 68.522,119.202 66.609,120.018 L8.508,144.763 C6.595,145.575 5.694,147.814 6.508,149.723" id="Fill-36" fill="#F4F4F2"></path>
            <path d="M46.281,233.452 C44.368,234.269 42.131,233.368 41.315,231.454 L6.515,149.721 C5.696,147.806 6.598,145.573 8.515,144.759 L66.611,120.016 C68.527,119.201 70.764,120.101 71.576,122.016 L106.38,203.747 C107.196,205.662 106.295,207.895 104.382,208.712 L46.281,233.452" id="Fill-37" fill="#FFFFFF"></path>
            <path d="M64.316,123.632 C63.698,123.897 63.408,124.605 63.669,125.223 C63.934,125.839 64.648,126.129 65.269,125.866 C65.89,125.605 66.163,124.891 65.903,124.275 C65.64,123.654 64.935,123.369 64.316,123.632" id="Fill-38" fill="#797C7A"></path>
            <path d="M61.654,117.384 C61.171,117.588 60.948,118.141 61.15,118.619 L63.796,124.832 C64.002,125.308 64.553,125.533 65.038,125.329 C65.516,125.119 65.742,124.568 65.537,124.09 L62.893,117.878 C62.687,117.399 62.134,117.176 61.654,117.384" id="Fill-39"></path>
            <path d="M57.864,126.379 C57.245,126.644 56.956,127.355 57.219,127.974 C57.485,128.588 58.195,128.879 58.814,128.616 C59.434,128.351 59.718,127.635 59.457,127.019 C59.195,126.398 58.484,126.115 57.864,126.379" id="Fill-41" fill="#797C7A"></path>
            <path d="M55.203,120.131 C54.723,120.333 54.497,120.888 54.704,121.366 L57.35,127.578 C57.552,128.058 58.107,128.28 58.585,128.072 C59.067,127.869 59.287,127.319 59.083,126.837 L56.436,120.628 C56.237,120.146 55.682,119.926 55.203,120.131" id="Fill-42"></path>
            <path d="M51.413,129.126 C50.793,129.389 50.506,130.1 50.769,130.72 C51.034,131.332 51.748,131.622 52.368,131.361 C52.985,131.099 53.267,130.384 53.006,129.77 C52.745,129.152 52.032,128.862 51.413,129.126" id="Fill-44" fill="#797C7A"></path>
            <path d="M48.753,122.878 C48.273,123.083 48.046,123.634 48.251,124.114 L50.895,130.327 C51.1,130.803 51.656,131.022 52.139,130.82 C52.615,130.616 52.837,130.062 52.635,129.587 L49.988,123.373 C49.786,122.89 49.234,122.673 48.753,122.878" id="Fill-45"></path>
            <path d="M44.963,131.872 C44.342,132.137 44.052,132.851 44.318,133.465 C44.581,134.081 45.293,134.373 45.913,134.11 C46.533,133.844 46.819,133.128 46.555,132.512 C46.293,131.894 45.579,131.607 44.963,131.872" id="Fill-47" fill="#797C7A"></path>
            <path d="M42.3,125.623 C41.822,125.83 41.596,126.381 41.803,126.858 L44.449,133.071 C44.651,133.549 45.206,133.773 45.684,133.569 C46.165,133.365 46.388,132.808 46.184,132.33 L43.54,126.119 C43.333,125.643 42.783,125.419 42.3,125.623" id="Fill-48"></path>
            <path d="M38.508,134.62 C37.898,134.881 37.611,135.59 37.868,136.211 C38.133,136.827 38.851,137.117 39.465,136.856 C40.088,136.592 40.366,135.875 40.105,135.261 C39.838,134.642 39.129,134.353 38.508,134.62" id="Fill-50" fill="#797C7A"></path>
            <path d="M35.852,128.373 C35.372,128.574 35.146,129.129 35.348,129.605 L37.996,135.818 C38.2,136.298 38.753,136.519 39.231,136.315 C39.714,136.107 39.94,135.556 39.738,135.078 L37.091,128.864 C36.887,128.387 36.333,128.166 35.852,128.373" id="Fill-51"></path>
            <path d="M32.064,137.365 C31.444,137.632 31.156,138.339 31.419,138.958 C31.684,139.576 32.398,139.866 33.016,139.6 C33.631,139.337 33.915,138.624 33.653,138.007 C33.39,137.387 32.683,137.102 32.064,137.365" id="Fill-53" fill="#797C7A"></path>
            <path d="M29.404,131.119 C28.917,131.323 28.695,131.874 28.899,132.354 L31.542,138.566 C31.748,139.042 32.3,139.264 32.787,139.06 C33.266,138.857 33.49,138.301 33.283,137.825 L30.639,131.61 C30.434,131.136 29.882,130.913 29.404,131.119" id="Fill-54"></path>
            <path d="M25.614,140.113 C24.995,140.377 24.706,141.086 24.971,141.706 C25.232,142.322 25.946,142.61 26.566,142.349 C27.187,142.083 27.467,141.372 27.209,140.752 C26.941,140.137 26.234,139.848 25.614,140.113" id="Fill-56" fill="#797C7A"></path>
            <path d="M22.953,133.865 C22.473,134.068 22.245,134.622 22.447,135.1 L25.091,141.313 C25.297,141.793 25.856,142.012 26.333,141.806 C26.817,141.604 27.037,141.051 26.837,140.571 L24.189,134.359 C23.987,133.88 23.432,133.657 22.953,133.865" id="Fill-57"></path>
            <path d="M19.159,142.86 C18.538,143.121 18.256,143.835 18.519,144.452 C18.781,145.069 19.495,145.359 20.113,145.093 C20.732,144.834 21.015,144.117 20.754,143.5 C20.491,142.882 19.777,142.597 19.159,142.86" id="Fill-59" fill="#797C7A"></path>
            <path d="M16.498,136.612 C16.02,136.818 15.794,137.369 15.998,137.847 L18.647,144.057 C18.847,144.537 19.4,144.759 19.884,144.559 C20.363,144.348 20.582,143.798 20.38,143.318 L17.738,137.105 C17.531,136.627 16.981,136.408 16.498,136.612" id="Fill-60"></path>
            <path d="M12.711,145.604 C12.092,145.87 11.809,146.578 12.072,147.195 C12.333,147.815 13.047,148.107 13.663,147.842 C14.286,147.577 14.564,146.863 14.303,146.247 C14.04,145.626 13.329,145.341 12.711,145.604" id="Fill-62" fill="#797C7A"></path>
            <path d="M10.05,139.358 C9.57,139.563 9.342,140.115 9.548,140.593 L12.193,146.806 C12.396,147.286 12.954,147.508 13.432,147.302 C13.915,147.095 14.138,146.545 13.936,146.062 L11.292,139.85 C11.088,139.374 10.531,139.154 10.05,139.358" id="Fill-63"></path>
            <path d="M72.178,134.889 L15.084,159.386 C14.789,159.513 14.444,159.375 14.318,159.08 L14.047,158.449 C13.92,158.154 14.058,157.809 14.353,157.683 L71.447,133.186 C71.742,133.059 72.087,133.197 72.213,133.492 L72.484,134.123 C72.611,134.418 72.473,134.763 72.178,134.889" id="Fill-65" fill="#E8E8E3"></path>
            <path d="M74.546,141.279 L18.083,165.505 C17.615,165.706 17.067,165.488 16.866,165.019 C16.665,164.551 16.884,164.003 17.352,163.802 L73.815,139.576 C74.284,139.375 74.831,139.594 75.032,140.062 C75.233,140.531 75.015,141.078 74.546,141.279" id="Fill-66" fill="#E8E8E3"></path>
            <path d="M77.23,147.534 L20.767,171.76 C20.298,171.961 19.751,171.742 19.55,171.274 C19.349,170.805 19.567,170.258 20.036,170.057 L76.499,145.831 C76.967,145.63 77.515,145.848 77.716,146.317 C77.917,146.785 77.698,147.333 77.23,147.534" id="Fill-67" fill="#E8E8E3"></path>
            <path d="M79.913,153.789 L23.451,178.015 C22.982,178.216 22.434,177.997 22.233,177.529 C22.032,177.06 22.251,176.512 22.72,176.311 L79.182,152.085 C79.651,151.884 80.199,152.103 80.4,152.572 C80.601,153.04 80.382,153.588 79.913,153.789" id="Fill-68" fill="#E8E8E3"></path>
            <path d="M82.597,160.044 L26.134,184.27 C25.666,184.471 25.118,184.252 24.917,183.783 C24.716,183.315 24.935,182.767 25.403,182.566 L81.866,158.34 C82.335,158.139 82.882,158.358 83.083,158.826 C83.284,159.295 83.066,159.843 82.597,160.044" id="Fill-69" fill="#E8E8E3"></path>
            <path d="M85.281,166.298 L28.818,190.524 C28.349,190.725 27.802,190.507 27.601,190.038 C27.4,189.57 27.618,189.022 28.087,188.821 L84.55,164.595 C85.018,164.394 85.566,164.613 85.767,165.081 C85.968,165.55 85.749,166.097 85.281,166.298" id="Fill-70" fill="#E8E8E3"></path>
            <path d="M87.964,172.553 L31.501,196.779 C31.033,196.98 30.485,196.761 30.284,196.293 C30.083,195.824 30.302,195.276 30.771,195.075 L87.233,170.849 C87.702,170.648 88.25,170.867 88.451,171.336 C88.652,171.804 88.433,172.352 87.964,172.553" id="Fill-71" fill="#E8E8E3"></path>
            <path d="M90.648,178.808 L34.185,203.034 C33.717,203.235 33.169,203.016 32.968,202.547 C32.767,202.079 32.986,201.531 33.454,201.33 L89.917,177.104 C90.386,176.903 90.933,177.122 91.134,177.59 C91.335,178.059 91.117,178.607 90.648,178.808" id="Fill-72" fill="#E8E8E3"></path>
            <path d="M93.332,185.063 L36.869,209.289 C36.4,209.49 35.853,209.271 35.652,208.802 C35.451,208.334 35.669,207.786 36.138,207.585 L92.601,183.359 C93.069,183.158 93.617,183.377 93.818,183.845 C94.019,184.314 93.8,184.861 93.332,185.063" id="Fill-73" fill="#E8E8E3"></path>
            <path d="M96.015,191.317 L39.552,215.543 C39.084,215.744 38.536,215.525 38.335,215.057 C38.134,214.588 38.353,214.041 38.822,213.84 L95.284,189.614 C95.753,189.413 96.301,189.631 96.502,190.1 C96.703,190.568 96.484,191.116 96.015,191.317" id="Fill-74" fill="#E8E8E3"></path>
            <path d="M99.015,197.436 L41.92,221.933 C41.626,222.06 41.281,221.922 41.154,221.627 L40.883,220.996 C40.757,220.701 40.895,220.356 41.189,220.23 L98.284,195.733 C98.579,195.606 98.923,195.744 99.05,196.039 L99.321,196.67 C99.447,196.965 99.31,197.31 99.015,197.436" id="Fill-75" fill="#E8E8E3"></path>
            <polyline id="Fill-76" fill="#F8C472" points="82.535 207.85 80.895 207.092 116.143 130.58 117.778 131.33 82.535 207.85"></polyline>
            <polyline id="Fill-77" fill="#E7AA63" points="84.167 208.6 82.535 207.85 117.778 131.33 119.417 132.088 84.167 208.6"></polyline>
            <polyline id="Fill-78" fill="#D8944A" points="85.804 209.355 84.167 208.6 119.417 132.088 121.057 132.839 85.804 209.355"></polyline>
            <polyline id="Fill-79" fill="#ECD2A3" points="117.778 131.33 123.65 120.676 116.143 130.58 117.778 131.33"></polyline>
            <polyline id="Fill-80" fill="#CEAF94" points="123.65 120.676 119.417 132.088 117.778 131.33 123.65 120.676"></polyline>
            <polyline id="Fill-81" fill="#BA9D80" points="123.65 120.676 121.057 132.839 119.417 132.088 123.65 120.676"></polyline>
            <path d="M122.553,123.632 L122.389,123.563 C122.295,123.523 122.214,123.48 122.133,123.422 C122.01,123.339 121.884,123.248 121.782,123.152 L123.65,120.681 L122.998,123.74 C122.843,123.725 122.697,123.685 122.553,123.632" id="Fill-82" fill="#565858"></path>
            <polyline id="Fill-83" fill="#FCFBFA" points="406.629 234.136 147.535 264.41 139.148 192.628 398.242 162.353 406.629 234.136"></polyline>
            <polyline id="Fill-84" fill="#C7C5C1" points="271.279 243.342 202.84 251.339 201.236 237.607 269.675 229.61 271.279 243.342"></polyline>
            <polyline id="Fill-85" fill="#C7C5C1" points="200.097 251.66 184.602 253.47 182.998 239.738 198.493 237.928 200.097 251.66"></polyline>
            <polyline id="Fill-86" fill="#C7C5C1" points="182.021 253.772 169.767 255.204 168.162 241.472 180.417 240.04 182.021 253.772"></polyline>
            <polyline id="Fill-87" fill="#C7C5C1" points="167.266 255.496 153.294 257.129 151.689 243.396 165.662 241.764 167.266 255.496"></polyline>
            <polyline id="Fill-88" fill="#C7C5C1" points="316.319 238.08 305.595 239.333 303.991 225.601 314.715 224.348 316.319 238.08"></polyline>
            <polyline id="Fill-89" fill="#C7C5C1" points="325.506 237.006 318.568 237.817 316.963 224.085 323.902 223.274 325.506 237.006"></polyline>
            <polyline id="Fill-90" fill="#C7C5C1" points="344.978 234.731 338.04 235.542 336.435 221.81 343.374 220.999 344.978 234.731"></polyline>
            <polyline id="Fill-91" fill="#C7C5C1" points="303.014 239.634 290.76 241.066 289.155 227.334 301.41 225.902 303.014 239.634"></polyline>
            <polyline id="Fill-92" fill="#C7C5C1" points="334.764 227.457 326.83 228.384 326.202 223.005 334.135 222.078 334.764 227.457"></polyline>
            <polyline id="Fill-93" fill="#C7C5C1" points="335.74 235.81 327.806 236.738 327.178 231.359 335.111 230.432 335.74 235.81"></polyline>
            <polyline id="Fill-94" fill="#C7C5C1" points="288.259 241.358 274.286 242.991 272.682 229.259 286.654 227.626 288.259 241.358"></polyline>
            <polyline id="Fill-95" fill="#C7C5C1" points="184.691 235.364 174.168 236.594 172.564 222.862 183.086 221.632 184.691 235.364"></polyline>
            <polyline id="Fill-96" fill="#C7C5C1" points="171.009 236.963 151.208 239.277 149.603 225.545 169.404 223.231 171.009 236.963"></polyline>
            <polyline id="Fill-97" fill="#C7C5C1" points="197.944 233.816 187.421 235.045 185.817 221.313 196.339 220.084 197.944 233.816"></polyline>
            <polyline id="Fill-98" fill="#C7C5C1" points="211.197 232.267 200.674 233.497 199.07 219.765 209.592 218.535 211.197 232.267"></polyline>
            <polyline id="Fill-99" fill="#C7C5C1" points="224.45 230.719 213.927 231.948 212.323 218.216 222.845 216.987 224.45 230.719"></polyline>
            <polyline id="Fill-100" fill="#C7C5C1" points="237.703 229.17 227.18 230.4 225.576 216.668 236.098 215.438 237.703 229.17"></polyline>
            <polyline id="Fill-101" fill="#C7C5C1" points="250.956 227.622 240.433 228.851 238.829 215.119 249.351 213.89 250.956 227.622"></polyline>
            <polyline id="Fill-102" fill="#C7C5C1" points="264.209 226.073 253.686 227.303 252.082 213.57 262.604 212.341 264.209 226.073"></polyline>
            <polyline id="Fill-103" fill="#C7C5C1" points="277.462 224.525 266.939 225.754 265.335 212.022 275.857 210.792 277.462 224.525"></polyline>
            <polyline id="Fill-104" fill="#C7C5C1" points="290.715 222.976 280.192 224.206 278.588 210.473 289.11 209.244 290.715 222.976"></polyline>
            <polyline id="Fill-105" fill="#C7C5C1" points="303.968 221.427 293.445 222.657 291.841 208.925 302.363 207.695 303.968 221.427"></polyline>
            <polyline id="Fill-106" fill="#C7C5C1" points="317.221 219.879 306.698 221.108 305.093 207.376 315.616 206.147 317.221 219.879"></polyline>
            <polyline id="Fill-107" fill="#C7C5C1" points="330.474 218.33 319.951 219.56 318.347 205.828 328.869 204.598 330.474 218.33"></polyline>
            <polyline id="Fill-108" fill="#C7C5C1" points="175.979 218.287 165.456 219.517 163.851 205.784 174.374 204.555 175.979 218.287"></polyline>
            <polyline id="Fill-109" fill="#C7C5C1" points="162.525 219.859 149.122 221.425 147.517 207.693 160.92 206.127 162.525 219.859"></polyline>
            <polyline id="Fill-110" fill="#C7C5C1" points="189.232 216.738 178.709 217.968 177.104 204.236 187.627 203.006 189.232 216.738"></polyline>
            <polyline id="Fill-111" fill="#C7C5C1" points="202.484 215.19 191.962 216.419 190.357 202.687 200.88 201.458 202.484 215.19"></polyline>
            <polyline id="Fill-112" fill="#C7C5C1" points="215.737 213.641 205.215 214.871 203.61 201.139 214.133 199.909 215.737 213.641"></polyline>
            <polyline id="Fill-113" fill="#C7C5C1" points="228.99 212.093 218.468 213.322 216.863 199.59 227.386 198.361 228.99 212.093"></polyline>
            <polyline id="Fill-114" fill="#C7C5C1" points="242.243 210.544 231.721 211.774 230.116 198.042 240.639 196.812 242.243 210.544"></polyline>
            <polyline id="Fill-115" fill="#C7C5C1" points="255.496 208.996 244.974 210.225 243.369 196.493 253.892 195.263 255.496 208.996"></polyline>
            <polyline id="Fill-116" fill="#C7C5C1" points="268.749 207.447 258.227 208.677 256.622 194.944 267.145 193.715 268.749 207.447"></polyline>
            <polyline id="Fill-117" fill="#C7C5C1" points="282.002 205.898 271.48 207.128 269.875 193.396 280.398 192.166 282.002 205.898"></polyline>
            <polyline id="Fill-118" fill="#C7C5C1" points="295.255 204.35 284.733 205.58 283.128 191.847 293.651 190.618 295.255 204.35"></polyline>
            <polyline id="Fill-119" fill="#C7C5C1" points="308.508 202.802 297.986 204.031 296.381 190.299 306.904 189.069 308.508 202.802"></polyline>
            <polyline id="Fill-120" fill="#C7C5C1" points="321.761 201.253 311.239 202.482 309.634 188.75 320.157 187.521 321.761 201.253"></polyline>
            <polyline id="Fill-121" fill="#C7C5C1" points="332.044 186.132 328.679 186.525 322.407 187.258 324.056 200.985 330.284 200.257 332.37 218.109 342.892 216.879 339.202 185.295 332.044 186.132"></polyline>
            <polyline id="Fill-122" fill="#C7C5C1" points="355.523 197.308 345 198.537 343.396 184.805 353.918 183.576 355.523 197.308"></polyline>
            <polyline id="Fill-123" fill="#C7C5C1" points="368.776 195.759 358.253 196.989 356.649 183.257 367.171 182.027 368.776 195.759"></polyline>
            <polyline id="Fill-124" fill="#C7C5C1" points="382.029 194.211 371.506 195.44 369.902 181.708 380.424 180.479 382.029 194.211"></polyline>
            <polyline id="Fill-125" fill="#C7C5C1" points="396.317 202.44 385.794 203.669 384.581 193.294 395.104 192.064 396.317 202.44"></polyline>
            <polyline id="Fill-126" fill="#C7C5C1" points="394.783 189.318 384.261 190.547 383.048 180.172 393.571 178.943 394.783 189.318"></polyline>
            <polyline id="Fill-127" fill="#C7C5C1" points="399.347 228.378 388.825 229.608 386.079 206.111 396.602 204.881 399.347 228.378"></polyline>
            <polyline id="Fill-128" fill="#C7C5C1" points="357.609 215.16 347.086 216.389 345.481 202.657 356.004 201.428 357.609 215.16"></polyline>
            <polyline id="Fill-129" fill="#C7C5C1" points="370.862 213.611 360.339 214.841 358.735 201.109 369.257 199.879 370.862 213.611"></polyline>
            <polyline id="Fill-130" fill="#C7C5C1" points="384.115 212.062 373.592 213.292 371.988 199.56 382.51 198.33 384.115 212.062"></polyline>
            <polyline id="Fill-131" fill="#C7C5C1" points="359.695 233.011 349.172 234.241 347.567 220.509 358.09 219.279 359.695 233.011"></polyline>
            <polyline id="Fill-132" fill="#C7C5C1" points="372.948 231.463 362.425 232.692 360.821 218.96 371.343 217.731 372.948 231.463"></polyline>
            <polyline id="Fill-133" fill="#C7C5C1" points="386.2 229.914 375.678 231.144 374.073 217.412 384.596 216.182 386.2 229.914"></polyline>
            <polyline id="Fill-134" fill="#C7C5C1" points="160.617 203.533 147.214 205.099 146.43 198.386 159.833 196.82 160.617 203.533"></polyline>
            <polyline id="Fill-135" fill="#C7C5C1" points="176.146 201.719 162.743 203.285 161.959 196.571 175.362 195.005 176.146 201.719"></polyline>
            <polyline id="Fill-136" fill="#C7C5C1" points="191.676 199.904 178.272 201.47 177.488 194.757 190.891 193.191 191.676 199.904"></polyline>
            <polyline id="Fill-137" fill="#C7C5C1" points="207.205 198.09 193.801 199.656 193.017 192.942 206.42 191.376 207.205 198.09"></polyline>
            <polyline id="Fill-138" fill="#C7C5C1" points="222.734 196.275 209.331 197.841 208.546 191.128 221.949 189.561 222.734 196.275"></polyline>
            <polyline id="Fill-139" fill="#C7C5C1" points="238.263 194.461 224.86 196.027 224.075 189.313 237.478 187.747 238.263 194.461"></polyline>
            <polyline id="Fill-140" fill="#C7C5C1" points="253.792 192.646 240.389 194.212 239.604 187.499 253.008 185.933 253.792 192.646"></polyline>
            <polyline id="Fill-141" fill="#C7C5C1" points="269.321 190.831 255.918 192.398 255.134 185.684 268.537 184.118 269.321 190.831"></polyline>
            <polyline id="Fill-142" fill="#C7C5C1" points="284.85 189.017 271.447 190.583 270.663 183.87 284.066 182.303 284.85 189.017"></polyline>
            <polyline id="Fill-143" fill="#C7C5C1" points="300.379 187.203 286.976 188.768 286.192 182.055 299.595 180.489 300.379 187.203"></polyline>
            <polyline id="Fill-144" fill="#C7C5C1" points="315.908 185.388 302.505 186.954 301.721 180.24 315.124 178.674 315.908 185.388"></polyline>
            <polyline id="Fill-145" fill="#C7C5C1" points="331.437 183.573 318.034 185.14 317.25 178.426 330.653 176.86 331.437 183.573"></polyline>
            <polyline id="Fill-146" fill="#C7C5C1" points="346.967 181.759 333.563 183.325 332.779 176.612 346.182 175.045 346.967 181.759"></polyline>
            <polyline id="Fill-147" fill="#C7C5C1" points="362.496 179.944 349.093 181.51 348.308 174.797 361.711 173.231 362.496 179.944"></polyline>
            <polyline id="Fill-148" fill="#C7C5C1" points="378.025 178.13 364.622 179.696 363.837 172.982 377.24 171.416 378.025 178.13"></polyline>
            <polyline id="Fill-149" fill="#C7C5C1" points="393.554 176.315 380.151 177.882 379.366 171.168 392.77 169.602 393.554 176.315"></polyline>
            <polyline id="Fill-150" fill="#D5D4CF" points="406.623 234.084 147.529 264.358 147.929 267.773 407.022 237.499 406.623 234.084"></polyline>
            <polyline id="Fill-151" fill="#E7E7E3" points="398.48 163.8 139.318 194.083 138.778 189.461 397.94 159.179 398.48 163.8"></polyline>
            <path d="M449.094,87.663 C440.926,92.985 429.991,90.679 424.668,82.512 C419.346,74.344 421.652,63.409 429.82,58.086 C437.987,52.764 448.923,55.07 454.245,63.238 C459.567,71.405 457.261,82.341 449.094,87.663" id="Fill-152" fill="#C2E2E7"></path>
            <path d="M430.773,59.968 C438.091,55.199 447.888,57.266 452.657,64.583 C457.425,71.9 455.359,81.698 448.042,86.466 C440.724,91.235 430.927,89.169 426.158,81.851 C421.39,74.534 423.456,64.736 430.773,59.968 Z M411.706,87.922 L414.768,92.62 L423.651,86.832 C430.354,94.609 441.939,96.427 450.778,90.666 C460.415,84.386 463.137,71.483 456.857,61.846 C450.577,52.209 437.673,49.488 428.036,55.768 C419.197,61.528 416.182,72.86 420.589,82.134 L411.706,87.922 L411.706,87.922 Z" id="Fill-153" fill="#FFFFFF"></path>
            <path d="M447.196,85.107 C442.323,88.283 435.798,86.906 432.622,82.033 C429.446,77.16 430.823,70.635 435.696,67.459 C440.569,64.283 447.094,65.659 450.27,70.533 C453.446,75.406 452.07,81.931 447.196,85.107" id="Fill-154" fill="#E1F1F4"></path>
            <path d="M446.615,84.214 C444.915,85.322 442.64,84.842 441.533,83.143 C440.426,81.443 440.905,79.168 442.605,78.061 C444.304,76.953 446.579,77.433 447.687,79.132 C448.794,80.832 448.314,83.107 446.615,84.214" id="Fill-155" fill="#FFFFFE"></path>
            <path d="M411.562,85.576 C411.206,85.752 410.852,85.947 410.506,86.173 L372.254,111.1 C368.944,113.257 367.446,116.878 368.925,119.148 C370.404,121.417 374.322,121.509 377.632,119.352 L415.883,94.425 C416.23,94.2 416.551,93.955 416.856,93.7 L411.562,85.576" id="Fill-156" fill="#27292F"></path>
            <path d="M306.715,82.442 C306.802,97.013 283.602,119.829 254.897,120 C226.08,120.171 202.743,97.631 202.655,83.059 C202.569,68.496 225.766,56.546 254.583,56.375 C283.288,56.204 306.629,67.878 306.715,82.442" id="Fill-157" fill="#4A6897"></path>
            <path d="M306.248,81.538 C306.333,96.106 283.134,119.818 254.434,119.987 C225.614,120.16 202.276,96.724 202.189,82.156 C202.102,67.591 225.3,55.638 254.12,55.468 C282.821,55.298 306.161,66.971 306.248,81.538" id="Fill-158" fill="#27292F"></path>
            <path d="M428.428,10.831 C428.439,12.732 426.413,14.277 423.9,14.293 L89.112,16.283 C86.596,16.297 84.548,14.777 84.537,12.876 L84.494,5.736 C84.484,3.844 86.514,2.292 89.029,2.279 L423.817,0.289 C426.329,0.274 428.375,1.801 428.385,3.693 L428.428,10.831" id="Fill-159" fill="#27292F"></path>
            <path d="M128.795,88.626 C128.424,88.366 128.107,88.072 127.87,87.758 L127.889,87.695 L128.795,88.626" id="Fill-160" fill="#B7B8B5"></path>
            <path d="M127.87,87.758 C127.805,87.671 127.746,87.584 127.694,87.495 L127.889,87.695 L127.87,87.758 M127.694,87.495 L127.694,87.495 L127.601,87.351 C127.663,87.4 127.727,87.448 127.793,87.494 L127.694,87.495" id="Fill-161" fill="#A4A5A4"></path>
            <path d="M380.524,87.039 L380.141,86.649 C380.733,86.411 381.276,86.094 381.72,85.73 L381.558,85.986 C381.315,86.365 380.956,86.723 380.524,87.039" id="Fill-162" fill="#ADAEAC"></path>
            <path d="M517,306 L340.289,306 L287.257,251.493 L407.022,237.499 L398.412,163.809 L398.48,163.8 L397.94,159.179 L217.907,180.215 L174.829,135.941 L203.621,92.346 L199.114,89.369 L203.795,89.341 C204.224,90.388 204.735,91.449 205.325,92.519 C211.856,106.113 231.576,121.616 254.961,121.616 C255.065,121.616 255.171,121.616 255.275,121.615 C280.54,121.465 301.543,103.072 306.149,88.733 L376.776,88.313 C378.059,88.306 379.498,87.79 380.524,87.039 L391.702,98.426 L372.254,111.1 C368.944,113.257 367.446,116.878 368.925,119.148 C369.689,120.32 371.105,120.912 372.751,120.912 C374.291,120.912 376.032,120.395 377.632,119.352 L398.741,105.596 L441.858,149.519 L438.147,161.443 C437.983,161.969 438.279,162.532 438.804,162.695 L461.828,169.862 L517,226.065 L517,306" id="Fill-163"></path>
            <path d="M174.829,135.941 L172.215,133.253 L174.214,126.61 L195.923,93.738 L193.776,92.32 L176.794,118.032 L179.776,108.124 L191.295,90.682 L189.395,89.427 L199.114,89.369 L203.621,92.346 L174.829,135.941 M182.357,99.546 L185.338,89.638 L185.462,89.45 L189.038,89.429 L182.357,99.546" id="Fill-165"></path>
            <g id="Group-169" transform="translate(185.000000, 89.000000)">
                <mask id="mask-2" fill="white">
                    <use xlink:href="#path-1"></use>
                </mask>
                <g id="Clip-168"></g>
                <polyline id="Fill-167" mask="url(#mask-2)" points="0.338 0.638 0.394 0.451 0.462 0.45 0.338 0.638"></polyline>
            </g>
            <polyline id="Fill-170" points="179.776 108.124 182.357 99.546 189.038 89.429 189.395 89.427 191.295 90.682 179.776 108.124"></polyline>
            <polyline id="Fill-172" points="174.214 126.61 176.794 118.032 193.776 92.32 195.923 93.738 174.214 126.61"></polyline>
            <path d="M172.215,133.253 L167.703,128.617 L179.29,90.108 L177.267,89.499 L185.394,89.451 L185.338,89.638 L172.215,133.253 M165.651,126.507 L163.28,124.07 L173.675,89.52 L176.785,89.502 L165.651,126.507 M161.227,121.96 L158.856,119.523 L167.873,89.555 L170.983,89.536 L161.227,121.96 M156.803,117.413 L154.432,114.976 L162.07,89.589 L165.18,89.571 L156.803,117.413 M152.379,112.866 L150.008,110.429 L156.268,89.624 L159.378,89.605 L152.379,112.866 M147.955,108.32 L145.584,105.882 L150.466,89.658 L153.576,89.64 L147.955,108.32 M143.532,103.773 L141.16,101.336 L144.664,89.693 L147.774,89.674 L143.532,103.773 M139.108,99.226 L136.736,96.789 L138.861,89.727 L141.971,89.709 L139.108,99.226 M134.684,94.679 L132.313,92.242 L133.059,89.762 L136.169,89.743 L134.684,94.679 M130.26,90.132 L128.795,88.626 C129.28,88.967 129.856,89.252 130.465,89.451 L130.26,90.132" id="Fill-174"></path>
            <path d="M132.313,92.242 L130.26,90.132 L130.465,89.451 C131.076,89.652 131.72,89.766 132.337,89.766 L132.365,89.766 L133.059,89.762 L132.313,92.242" id="Fill-176"></path>
            <polyline id="Fill-178" points="136.736 96.789 134.684 94.679 136.169 89.743 138.861 89.727 136.736 96.789"></polyline>
            <polyline id="Fill-180" points="141.16 101.336 139.108 99.226 141.971 89.709 144.664 89.693 141.16 101.336"></polyline>
            <polyline id="Fill-182" points="145.584 105.882 143.532 103.773 147.774 89.674 150.466 89.658 145.584 105.882"></polyline>
            <polyline id="Fill-184" points="150.008 110.429 147.955 108.32 153.576 89.64 156.268 89.624 150.008 110.429"></polyline>
            <polyline id="Fill-186" points="154.432 114.976 152.379 112.866 159.378 89.605 162.07 89.589 154.432 114.976"></polyline>
            <polyline id="Fill-188" points="158.856 119.523 156.803 117.413 165.18 89.571 167.873 89.555 158.856 119.523"></polyline>
            <polyline id="Fill-190" points="163.28 124.07 161.227 121.96 170.983 89.536 173.675 89.52 163.28 124.07"></polyline>
            <polyline id="Fill-192" points="167.703 128.617 165.651 126.507 176.785 89.502 177.267 89.499 179.29 90.108 167.703 128.617"></polyline>
            <path d="M284.232,248.385 L278.505,242.498 L288.259,241.358 L286.654,227.626 L272.682,229.259 L273.645,237.503 L270.181,233.943 L269.675,229.61 L266.344,229.999 L262.696,226.25 L264.209,226.073 L262.604,212.341 L252.082,213.57 L252.317,215.582 L246.887,210.002 L255.496,208.996 L253.892,195.263 L243.369,196.493 L244.683,207.736 L241.537,204.503 L240.639,196.812 L234.726,197.503 L232.43,195.142 L238.263,194.461 L237.478,187.747 L226.484,189.032 L221.999,184.422 L398.412,163.809 L406.629,234.136 L406.623,234.084 L284.232,248.385 M301.41,225.902 L289.155,227.334 L290.76,241.066 L303.014,239.634 L301.41,225.902 M314.715,224.348 L303.991,225.601 L305.595,239.333 L316.319,238.08 L314.715,224.348 M323.902,223.274 L316.963,224.085 L318.568,237.817 L325.506,237.006 L323.902,223.274 M335.111,230.432 L327.178,231.359 L327.806,236.738 L335.74,235.81 L335.111,230.432 M343.374,220.999 L336.435,221.81 L338.04,235.542 L344.978,234.731 L343.374,220.999 M358.09,219.279 L347.567,220.509 L349.172,234.241 L359.695,233.011 L358.09,219.279 M371.343,217.731 L360.821,218.96 L362.425,232.692 L372.948,231.463 L371.343,217.731 M384.596,216.182 L374.073,217.412 L375.678,231.144 L386.2,229.914 L384.596,216.182 M396.602,204.881 L386.079,206.111 L388.825,229.608 L399.347,228.378 L396.602,204.881 M334.135,222.078 L326.202,223.005 L326.83,228.384 L334.764,227.457 L334.135,222.078 M275.857,210.792 L265.335,212.022 L266.939,225.754 L277.462,224.525 L275.857,210.792 M289.11,209.244 L278.588,210.473 L280.192,224.206 L290.715,222.976 L289.11,209.244 M302.363,207.695 L291.841,208.925 L293.445,222.657 L303.968,221.427 L302.363,207.695 M315.616,206.147 L305.093,207.376 L306.698,221.108 L317.221,219.879 L315.616,206.147 M328.869,204.598 L318.347,205.828 L319.951,219.56 L330.474,218.33 L328.869,204.598 M330.284,200.257 L332.37,218.109 L342.892,216.879 L339.202,185.295 L332.044,186.132 L328.679,186.525 L322.407,187.258 L324.056,200.985 L330.284,200.257 M356.004,201.428 L345.481,202.657 L347.086,216.389 L357.609,215.16 L356.004,201.428 M369.257,199.879 L358.735,201.109 L360.339,214.841 L370.862,213.611 L369.257,199.879 M382.51,198.33 L371.988,199.56 L373.592,213.292 L384.115,212.062 L382.51,198.33 M267.145,193.715 L256.622,194.944 L258.227,208.677 L268.749,207.447 L267.145,193.715 M280.398,192.166 L269.875,193.396 L271.48,207.128 L282.002,205.898 L280.398,192.166 M293.651,190.618 L283.128,191.847 L284.733,205.58 L295.255,204.35 L293.651,190.618 M306.904,189.069 L296.381,190.299 L297.986,204.031 L308.508,202.802 L306.904,189.069 M395.104,192.064 L384.581,193.294 L385.794,203.669 L396.317,202.44 L395.104,192.064 M320.157,187.521 L309.634,188.75 L311.239,202.482 L321.761,201.253 L320.157,187.521 M353.918,183.576 L343.396,184.805 L345,198.537 L355.523,197.308 L353.918,183.576 M367.171,182.027 L356.649,183.257 L358.253,196.989 L368.776,195.759 L367.171,182.027 M380.424,180.479 L369.902,181.708 L371.506,195.44 L382.029,194.211 L380.424,180.479 M253.008,185.933 L239.604,187.499 L240.389,194.212 L253.792,192.646 L253.008,185.933 M268.537,184.118 L255.134,185.684 L255.918,192.398 L269.321,190.831 L268.537,184.118 M284.066,182.303 L270.663,183.87 L271.447,190.583 L284.85,189.017 L284.066,182.303 M393.571,178.943 L383.048,180.172 L384.261,190.547 L394.783,189.318 L393.571,178.943 M299.595,180.489 L286.192,182.055 L286.976,188.768 L300.379,187.203 L299.595,180.489 M315.124,178.674 L301.721,180.24 L302.505,186.954 L315.908,185.388 L315.124,178.674 M330.653,176.86 L317.25,178.426 L318.034,185.14 L331.437,183.573 L330.653,176.86 M346.182,175.045 L332.779,176.612 L333.563,183.325 L346.967,181.759 L346.182,175.045 M361.711,173.231 L348.308,174.797 L349.093,181.51 L362.496,179.944 L361.711,173.231 M377.24,171.416 L363.837,172.982 L364.622,179.696 L378.025,178.13 L377.24,171.416 M392.77,169.602 L379.366,171.168 L380.151,177.882 L393.554,176.315 L392.77,169.602" id="Fill-194"></path>
            <polyline id="Fill-196" points="270.181 233.943 266.344 229.999 269.675 229.61 270.181 233.943"></polyline>
            <polyline id="Fill-198" points="305.595 239.333 303.991 225.601 314.715 224.348 316.319 238.08 305.595 239.333"></polyline>
            <polyline id="Fill-200" points="318.568 237.817 316.963 224.085 323.902 223.274 325.506 237.006 318.568 237.817"></polyline>
            <polyline id="Fill-202" points="338.04 235.542 336.435 221.81 343.374 220.999 344.978 234.731 338.04 235.542"></polyline>
            <polyline id="Fill-204" points="290.76 241.066 289.155 227.334 301.41 225.902 303.014 239.634 290.76 241.066"></polyline>
            <polyline id="Fill-206" points="326.83 228.384 326.202 223.005 334.135 222.078 334.764 227.457 326.83 228.384"></polyline>
            <polyline id="Fill-208" points="327.806 236.738 327.178 231.359 335.111 230.432 335.74 235.81 327.806 236.738"></polyline>
            <polyline id="Fill-210" points="278.505 242.498 273.645 237.503 272.682 229.259 286.654 227.626 288.259 241.358 278.505 242.498"></polyline>
            <polyline id="Fill-212" points="262.696 226.25 252.317 215.582 252.082 213.57 262.604 212.341 264.209 226.073 262.696 226.25"></polyline>
            <polyline id="Fill-214" points="266.939 225.754 265.335 212.022 275.857 210.792 277.462 224.525 266.939 225.754"></polyline>
            <polyline id="Fill-216" points="280.192 224.206 278.588 210.473 289.11 209.244 290.715 222.976 280.192 224.206"></polyline>
            <polyline id="Fill-218" points="293.445 222.657 291.841 208.925 302.363 207.695 303.968 221.427 293.445 222.657"></polyline>
            <polyline id="Fill-220" points="306.698 221.108 305.093 207.376 315.616 206.147 317.221 219.879 306.698 221.108"></polyline>
            <polyline id="Fill-222" points="319.951 219.56 318.347 205.828 328.869 204.598 330.474 218.33 319.951 219.56"></polyline>
            <polyline id="Fill-224" points="241.537 204.503 234.726 197.503 240.639 196.812 241.537 204.503"></polyline>
            <polyline id="Fill-226" points="246.887 210.002 244.683 207.736 243.369 196.493 253.892 195.263 255.496 208.996 246.887 210.002"></polyline>
            <polyline id="Fill-228" points="258.227 208.677 256.622 194.944 267.145 193.715 268.749 207.447 258.227 208.677"></polyline>
            <polyline id="Fill-230" points="271.48 207.128 269.875 193.396 280.398 192.166 282.002 205.898 271.48 207.128"></polyline>
            <polyline id="Fill-232" points="284.733 205.58 283.128 191.847 293.651 190.618 295.255 204.35 284.733 205.58"></polyline>
            <polyline id="Fill-234" points="297.986 204.031 296.381 190.299 306.904 189.069 308.508 202.802 297.986 204.031"></polyline>
            <polyline id="Fill-236" points="311.239 202.482 309.634 188.75 320.157 187.521 321.761 201.253 311.239 202.482"></polyline>
            <polyline id="Fill-238" points="332.37 218.109 330.284 200.257 324.056 200.985 322.407 187.258 328.679 186.525 332.044 186.132 339.202 185.295 342.892 216.879 332.37 218.109"></polyline>
            <polyline id="Fill-240" points="345 198.537 343.396 184.805 353.918 183.576 355.523 197.308 345 198.537"></polyline>
            <polyline id="Fill-242" points="358.253 196.989 356.649 183.257 367.171 182.027 368.776 195.759 358.253 196.989"></polyline>
            <polyline id="Fill-244" points="371.506 195.44 369.902 181.708 380.424 180.479 382.029 194.211 371.506 195.44"></polyline>
            <polyline id="Fill-246" points="385.794 203.669 384.581 193.294 395.104 192.064 396.317 202.44 385.794 203.669"></polyline>
            <polyline id="Fill-248" points="384.261 190.547 383.048 180.172 393.571 178.943 394.783 189.318 384.261 190.547"></polyline>
            <polyline id="Fill-250" points="388.825 229.608 386.079 206.111 396.602 204.881 399.347 228.378 388.825 229.608"></polyline>
            <polyline id="Fill-252" points="347.086 216.389 345.481 202.657 356.004 201.428 357.609 215.16 347.086 216.389"></polyline>
            <polyline id="Fill-254" points="360.339 214.841 358.735 201.109 369.257 199.879 370.862 213.611 360.339 214.841"></polyline>
            <polyline id="Fill-256" points="373.592 213.292 371.988 199.56 382.51 198.33 384.115 212.062 373.592 213.292"></polyline>
            <polyline id="Fill-258" points="349.172 234.241 347.567 220.509 358.09 219.279 359.695 233.011 349.172 234.241"></polyline>
            <polyline id="Fill-260" points="362.425 232.692 360.821 218.96 371.343 217.731 372.948 231.463 362.425 232.692"></polyline>
            <polyline id="Fill-262" points="375.678 231.144 374.073 217.412 384.596 216.182 386.2 229.914 375.678 231.144"></polyline>
            <polyline id="Fill-264" points="232.43 195.142 226.484 189.032 237.478 187.747 238.263 194.461 232.43 195.142"></polyline>
            <polyline id="Fill-266" points="240.389 194.212 239.604 187.499 253.008 185.933 253.792 192.646 240.389 194.212"></polyline>
            <polyline id="Fill-268" points="255.918 192.398 255.134 185.684 268.537 184.118 269.321 190.831 255.918 192.398"></polyline>
            <polyline id="Fill-270" points="271.447 190.583 270.663 183.87 284.066 182.303 284.85 189.017 271.447 190.583"></polyline>
            <polyline id="Fill-272" points="286.976 188.768 286.192 182.055 299.595 180.489 300.379 187.203 286.976 188.768"></polyline>
            <polyline id="Fill-274" points="302.505 186.954 301.721 180.24 315.124 178.674 315.908 185.388 302.505 186.954"></polyline>
            <polyline id="Fill-276" points="318.034 185.14 317.25 178.426 330.653 176.86 331.437 183.573 318.034 185.14"></polyline>
            <polyline id="Fill-278" points="333.563 183.325 332.779 176.612 346.182 175.045 346.967 181.759 333.563 183.325"></polyline>
            <polyline id="Fill-280" points="349.093 181.51 348.308 174.797 361.711 173.231 362.496 179.944 349.093 181.51"></polyline>
            <polyline id="Fill-282" points="364.622 179.696 363.837 172.982 377.24 171.416 378.025 178.13 364.622 179.696"></polyline>
            <polyline id="Fill-284" points="380.151 177.882 379.366 171.168 392.77 169.602 393.554 176.315 380.151 177.882"></polyline>
            <polyline id="Fill-286" points="287.257 251.493 284.232 248.385 406.623 234.084 406.629 234.136 407.022 237.499 287.257 251.493"></polyline>
            <polyline id="Fill-288" points="221.999 184.422 217.907 180.215 397.94 159.179 398.48 163.8 398.412 163.809 221.999 184.422"></polyline>
            <path d="M372.751,120.912 C371.105,120.912 369.689,120.32 368.925,119.148 C367.446,116.878 368.944,113.257 372.254,111.1 L391.702,98.426 L398.741,105.596 L377.632,119.352 C376.032,120.395 374.291,120.912 372.751,120.912" id="Fill-290"></path>
            <path d="M254.961,121.616 C231.576,121.616 211.856,106.113 205.325,92.519 C205.573,92.969 205.836,93.422 206.112,93.875 C210.533,101.412 218.906,109.153 229.578,114.231 C236.496,117.566 244.356,119.749 252.716,119.97 C253.331,119.99 253.95,120.001 254.57,120.001 C254.677,120.001 254.789,120.001 254.897,120 C279.716,119.852 300.419,102.776 305.514,88.737 L306.149,88.733 C301.543,103.072 280.54,121.465 255.275,121.615 C255.171,121.616 255.065,121.616 254.961,121.616" id="Fill-292"></path>
            <path d="M254.57,120.001 C253.95,120.001 253.331,119.99 252.716,119.97 C253.182,119.982 253.648,119.988 254.117,119.988 C254.221,119.988 254.33,119.988 254.434,119.987 C278.748,119.844 299.113,102.804 304.719,88.741 L305.514,88.737 C300.419,102.776 279.716,119.852 254.897,120 C254.789,120.001 254.677,120.001 254.57,120.001 M229.578,114.231 C218.906,109.153 210.533,101.412 206.112,93.875 C210.709,101.42 219.051,109.158 229.578,114.231" id="Fill-294"></path>
            <path d="M254.117,119.988 C253.648,119.988 253.182,119.982 252.716,119.97 C244.356,119.749 236.496,117.566 229.578,114.231 C219.051,109.158 210.709,101.42 206.112,93.875 C205.836,93.422 205.573,92.969 205.325,92.519 C204.735,91.449 204.224,90.388 203.795,89.341 L304.719,88.741 C299.113,102.804 278.748,119.844 254.434,119.987 C254.33,119.988 254.221,119.988 254.117,119.988" id="Fill-296"></path>
            <path d="M199.114,89.369 L197.436,88.261 L203.366,88.226 C203.498,88.595 203.641,88.967 203.795,89.341 L199.114,89.369" id="Fill-298"></path>
            <polyline id="Fill-300" points="185.462 89.45 186.203 88.328 197.436 88.261 199.114 89.369 189.395 89.427 189.148 89.263 189.038 89.429 185.462 89.45"></polyline>
            <g id="Group-304" transform="translate(185.000000, 88.000000)">
                <polyline id="Fill-302" points="0.394 1.451 0.731 0.331 1.203 0.328 0.462 1.45 0.394 1.451"></polyline>
            </g>
            <g id="Group-307" transform="translate(189.000000, 89.000000)">
                <mask id="mask-4" fill="white">
                    <use xlink:href="#path-3"></use>
                </mask>
                <g id="Clip-306"></g>
                <polyline id="Fill-305" mask="url(#mask-4)" points="0.038 0.429 0.148 0.263 0.395 0.427 0.038 0.429"></polyline>
            </g>
            <path d="M133.059,89.762 L133.396,88.642 L136.506,88.623 L136.169,89.743 L133.059,89.762 M138.861,89.727 L139.198,88.607 L142.308,88.589 L141.971,89.709 L138.861,89.727 M144.664,89.693 L145.001,88.573 L148.111,88.554 L147.774,89.674 L144.664,89.693 M150.466,89.658 L150.803,88.538 L153.913,88.52 L153.576,89.64 L150.466,89.658 M156.268,89.624 L156.605,88.504 L159.715,88.485 L159.378,89.605 L156.268,89.624 M162.07,89.589 L162.407,88.469 L165.518,88.451 L165.18,89.571 L162.07,89.589 M167.873,89.555 L168.21,88.435 L171.32,88.416 L170.983,89.536 L167.873,89.555 M173.675,89.52 L173.979,88.51 L173.622,88.403 L185.731,88.331 L185.394,89.451 L177.267,89.499 L176.826,89.366 L176.785,89.502 L173.675,89.52 M130.465,89.451 C129.856,89.252 129.28,88.967 128.795,88.626 L127.889,87.695 L127.922,87.583 C128.712,88.109 129.722,88.489 130.718,88.611 L130.465,89.451" id="Fill-308"></path>
            <g id="Group-312" transform="translate(127.000000, 87.000000)">
                <mask id="mask-6" fill="white">
                    <use xlink:href="#path-5"></use>
                </mask>
                <g id="Clip-311"></g>
                <path d="M0.889,0.695 L0.694,0.495 L0.793,0.494 C0.835,0.524 0.879,0.554 0.922,0.583 L0.889,0.695" id="Fill-310" mask="url(#mask-6)"></path>
            </g>
            <path d="M132.337,89.766 C131.72,89.766 131.076,89.652 130.465,89.451 L130.718,88.611 C130.943,88.639 131.168,88.653 131.389,88.653 L131.42,88.653 L133.396,88.642 L133.059,89.762 L132.365,89.766 L132.337,89.766" id="Fill-313"></path>
            <polyline id="Fill-315" points="136.169 89.743 136.506 88.623 139.198 88.607 138.861 89.727 136.169 89.743"></polyline>
            <polyline id="Fill-317" points="141.971 89.709 142.308 88.589 145.001 88.573 144.664 89.693 141.971 89.709"></polyline>
            <polyline id="Fill-319" points="147.774 89.674 148.111 88.554 150.803 88.538 150.466 89.658 147.774 89.674"></polyline>
            <polyline id="Fill-321" points="153.576 89.64 153.913 88.52 156.605 88.504 156.268 89.624 153.576 89.64"></polyline>
            <polyline id="Fill-323" points="159.378 89.605 159.715 88.485 162.407 88.469 162.07 89.589 159.378 89.605"></polyline>
            <polyline id="Fill-325" points="165.18 89.571 165.518 88.451 168.21 88.435 167.873 89.555 165.18 89.571"></polyline>
            <polyline id="Fill-327" points="170.983 89.536 171.32 88.416 173.622 88.403 173.979 88.51 173.675 89.52 170.983 89.536"></polyline>
            <g id="Group-331" transform="translate(176.000000, 89.000000)">
                <mask id="mask-8" fill="white">
                    <use xlink:href="#path-7"></use>
                </mask>
                <g id="Clip-330"></g>
                <polyline id="Fill-329" mask="url(#mask-8)" points="0.785 0.502 0.826 0.366 1.267 0.499 0.785 0.502"></polyline>
            </g>
            <path d="M306.149,88.733 C306.27,88.356 306.379,87.984 306.478,87.613 L377.698,87.19 C378.5,87.185 379.363,86.986 380.148,86.657 L380.524,87.039 C379.498,87.79 378.059,88.306 376.776,88.313 L306.149,88.733" id="Fill-332"></path>
            <g id="Group-336" transform="translate(305.000000, 87.000000)">
                <mask id="mask-10" fill="white">
                    <use xlink:href="#path-9"></use>
                </mask>
                <g id="Clip-335"></g>
                <path d="M0.514,1.737 C0.65,1.361 0.776,0.987 0.889,0.616 L1.478,0.613 C1.379,0.984 1.27,1.356 1.149,1.733 L0.514,1.737" id="Fill-334" mask="url(#mask-10)"></path>
            </g>
            <path d="M304.719,88.741 C304.869,88.366 305.008,87.992 305.136,87.621 L305.889,87.616 C305.776,87.987 305.65,88.361 305.514,88.737 L304.719,88.741" id="Fill-337"></path>
            <path d="M203.795,89.341 C203.641,88.967 203.498,88.595 203.366,88.226 L305.136,87.621 C305.008,87.992 304.869,88.366 304.719,88.741 L203.795,89.341" id="Fill-339"></path>
            <path d="M425.715,10.279 L87.386,12.288 C84.843,12.302 83.911,14.219 85.279,16.527 L121.585,78.573 L121.646,78.666 L121.691,78.666 L126.714,86.382 C127.467,87.655 129.568,88.664 131.42,88.653 L377.698,87.19 C379.54,87.179 381.697,86.143 382.521,84.861 L387.509,77.086 L387.454,77.086 L387.514,76.991 L427.595,14.494 C429.086,12.167 428.254,10.262 425.715,10.279" id="Fill-341" fill="#3B3F47"></path>
            <path d="M90.04,16.871 L129.977,82.727 L378.944,81.108 L420.953,15.14 C421.172,14.795 90.04,16.871 90.04,16.871" id="Fill-342" fill="#FFFFFF"></path>
            <polyline id="Fill-343" fill="#51BACE" points="89.115 16.766 128.759 83.991 379.646 81.244 421.124 14.887 89.115 16.766"></polyline>
            <path d="M128.759,83.991 L89.115,16.766 L119.521,28.6 L112.938,28.635 L114.242,31.119 L125.832,31.055 L140.567,36.79 L117.289,36.917 L118.516,39.253 L146.505,39.101 L160.384,44.502 L121.385,44.714 L122.543,46.917 L165.982,46.68 L179.076,51.776 L125.25,52.07 L126.342,54.15 L184.362,53.834 L196.733,58.648 L128.9,59.018 L129.934,60.985 L201.733,60.594 L213.446,65.152 L132.355,65.594 L133.334,67.458 L218.182,66.995 L256.492,81.904 L128.759,83.991 M220.8,71.031 L135.456,71.496 L139.586,79.358 L222.044,78.909 L220.8,71.031" id="Fill-344" fill="#6CC4D2"></path>
            <path d="M478.861,175.164 L438.804,162.695 C438.279,162.532 437.983,161.969 438.147,161.443 L461.449,86.58 C461.776,85.53 462.903,84.938 463.953,85.265 L502.101,97.139 C503.151,97.466 503.743,98.593 503.416,99.643 L480.113,174.506 C479.95,175.031 479.386,175.327 478.861,175.164" id="Fill-345" fill="#3B3F47"></path>
            <path d="M481.18,164.458 L442.971,152.565 L461.163,94.123 C461.327,93.596 461.887,93.301 462.415,93.465 L498.713,104.764 C499.241,104.928 499.535,105.489 499.371,106.016 L481.18,164.458" id="Fill-346" fill="#27292F"></path>
            <path d="M485.044,96.725 L478.232,94.605 C478.103,94.565 478.03,94.426 478.07,94.297 C478.11,94.168 478.249,94.095 478.378,94.135 L485.19,96.255 C485.319,96.296 485.392,96.434 485.352,96.563 C485.312,96.692 485.173,96.765 485.044,96.725" id="Fill-347" fill="#2D3243"></path>
            <path d="M476.778,93.895 C476.684,94.197 476.362,94.366 476.06,94.272 C475.757,94.178 475.588,93.856 475.682,93.553 C475.777,93.251 476.098,93.082 476.401,93.176 C476.704,93.27 476.873,93.592 476.778,93.895" id="Fill-348" fill="#2D3243"></path>
            <path d="M463.607,164.627 C463.069,166.356 461.231,167.322 459.501,166.784 C457.771,166.245 456.805,164.407 457.344,162.677 C457.882,160.947 459.721,159.981 461.451,160.52 C463.18,161.058 464.146,162.897 463.607,164.627" id="Fill-349" fill="#27292F"></path>
            <path d="M460.097,162.426 C459.973,162.388 459.84,162.457 459.802,162.582 L459.313,164.15 C459.275,164.274 459.344,164.407 459.469,164.445 L460.854,164.877 C460.978,164.915 461.111,164.846 461.15,164.722 L461.638,163.153 C461.677,163.029 461.607,162.896 461.483,162.858 L460.097,162.426 Z M460.815,165.005 L459.429,164.573 C459.234,164.513 459.125,164.305 459.186,164.11 L459.674,162.542 C459.734,162.347 459.942,162.238 460.137,162.299 L461.523,162.73 C461.717,162.791 461.826,162.998 461.766,163.193 L461.277,164.761 C461.217,164.956 461.009,165.065 460.815,165.005 L460.815,165.005 Z" id="Fill-350" fill="#3B3F47"></path>
            <path d="M453.112,119.988 L461.163,94.123 L453.112,119.988 M499.371,106.016 L499.371,106.016 C499.475,105.682 499.395,105.334 499.188,105.082 C499.37,105.281 499.506,105.583 499.371,106.016 M498.713,104.764 L498.315,104.64 C498.575,104.721 498.713,104.764 498.713,104.764 M498.314,104.64 L497.906,104.513 C498.065,104.562 498.201,104.604 498.314,104.64 M497.821,104.486 L497.696,104.447 C497.739,104.461 497.781,104.474 497.821,104.486 M497.68,104.442 L497.615,104.422 C497.637,104.429 497.658,104.436 497.68,104.442 M497.598,104.417 L497.573,104.409 C497.582,104.412 497.59,104.414 497.598,104.417 M497.514,104.391 L497.505,104.388 C497.508,104.389 497.511,104.39 497.514,104.391 M497.469,104.377 L497.468,104.377 L497.469,104.377 M462.426,93.469 L462.415,93.465 C462.418,93.466 462.421,93.468 462.426,93.469 M462.415,93.465 C462.412,93.465 462.409,93.464 462.406,93.463 C462.409,93.464 462.412,93.465 462.415,93.465" id="Fill-351" fill="#595C63"></path>
            <path d="M453.112,119.988 L461.163,94.123 C461.163,94.123 461.533,93.424 462.152,93.424 C462.233,93.424 462.317,93.436 462.406,93.463 C462.409,93.464 462.412,93.465 462.415,93.465 L462.426,93.469 C463.353,93.758 491.201,102.426 497.468,104.377 L497.469,104.377 C497.481,104.381 497.493,104.384 497.505,104.388 L497.514,104.391 C497.534,104.397 497.554,104.403 497.573,104.409 L497.598,104.417 C497.604,104.419 497.609,104.42 497.615,104.422 L497.68,104.442 C497.685,104.444 497.691,104.446 497.696,104.447 L497.821,104.486 C497.85,104.495 497.879,104.504 497.906,104.513 L498.314,104.64 L498.315,104.64 L498.713,104.764 C498.713,104.764 498.981,104.857 499.188,105.082 C499.395,105.334 499.475,105.682 499.371,106.016 L453.112,119.988" id="Fill-352" fill="#46484D"></path>
            <path d="M478.383,236.718 L445.262,246.162 C444.397,246.409 443.495,245.907 443.249,245.042 L437.646,225.393 C437.399,224.528 437.9,223.627 438.766,223.38 L471.886,213.936 C472.751,213.689 473.653,214.19 473.9,215.056 L479.502,234.704 C479.749,235.57 479.248,236.471 478.383,236.718" id="Fill-353" fill="#3B3F47"></path>
            <polyline id="Fill-354" fill="#27292F" points="475.946 222.233 439.692 232.571 438.16 227.196 474.414 216.858 475.946 222.233"></polyline>
            <polyline id="Fill-355" fill="#E9E9E6" points="478.783 232.18 442.529 242.518 440.676 236.02 476.93 225.682 478.783 232.18"></polyline>
            <polyline id="Fill-356" fill="#27292F" points="467.999 232.392 462.143 234.062 461.8 232.859 467.656 231.189 467.999 232.392"></polyline>
            <polyline id="Fill-357" fill="#27292F" points="474.417 230.562 470.165 231.775 469.822 230.572 474.073 229.359 474.417 230.562"></polyline>
            <polyline id="Fill-358" fill="#27292F" points="469.715 216.203 439.071 224.941 438.98 224.62 469.623 215.882 469.715 216.203"></polyline>
            <polyline id="Fill-359" fill="#27292F" points="474.437 236.108 444.676 244.595 444.515 244.033 474.276 235.547 474.437 236.108"></polyline>
            <path d="M468.2,266.929 L435.606,252.016 C434.788,251.642 434.428,250.675 434.803,249.857 L443.67,230.476 C444.044,229.658 445.011,229.298 445.829,229.672 L478.423,244.585 C479.241,244.959 479.6,245.926 479.226,246.744 L470.359,266.125 C469.984,266.943 469.018,267.303 468.2,266.929" id="Fill-360" fill="#3B3F47"></path>
            <path d="M465.965,261.307 C465.28,262.806 463.51,263.466 462.01,262.781 C460.511,262.096 459.851,260.325 460.536,258.826 C461.221,257.327 462.992,256.667 464.491,257.352 C465.99,258.037 466.65,259.807 465.965,261.307" id="Fill-361" fill="#F5D646"></path>
            <path d="M469.713,263.019 C469.028,264.518 467.257,265.178 465.758,264.493 C464.258,263.808 463.598,262.037 464.283,260.538 C464.968,259.039 466.739,258.379 468.238,259.064 C469.738,259.749 470.398,261.519 469.713,263.019" id="Fill-362" fill="#D7463D"></path>
            <polyline id="Fill-363" fill="#27292F" points="458.6 259.329 435.331 248.698 436.396 246.367 459.665 256.998 458.6 259.329"></polyline>
            <polyline id="Fill-364" fill="#F6F6F3" points="475.836 254.154 440.264 237.902 443.879 229.988 479.451 246.24 475.836 254.154"></polyline>
            <polyline id="Fill-365" fill="#27292F" points="454.382 239.764 453.619 239.415 453.291 240.133 453.967 240.442 454.196 240.172 454.536 240.328 454.187 241.091 452.214 240.19 452.361 239.868 452.696 239.884 453.508 238.108 453.276 237.865 453.423 237.543 454.301 237.922 455.36 238.405 455.026 239.135 454.686 238.979 454.717 238.66 454.094 238.375 453.809 238.999 454.572 239.348 454.382 239.764"></polyline>
            <polyline id="Fill-366" fill="#27292F" points="456.044 240.98 454.967 240.488 455.183 240.015 456.26 240.508 456.044 240.98"></polyline>
            <path d="M458.772,240.554 C458.772,240.554 458.622,240.412 458.376,240.3 C457.979,240.118 457.618,240.31 457.329,240.941 C457.049,241.553 457.178,241.923 457.574,242.104 C457.953,242.277 458.414,242.168 458.414,242.168 L458.466,242.603 C458.466,242.603 457.881,242.834 457.287,242.563 C456.52,242.212 456.288,241.549 456.689,240.672 C457.095,239.783 457.836,239.482 458.611,239.836 C459.068,240.045 459.411,240.416 459.411,240.416 L459.064,241.126 L458.693,240.956 L458.772,240.554" id="Fill-367" fill="#27292F"></path>
            <path d="M460.624,241.615 L459.916,242.374 L460.498,242.64 L460.624,241.615 Z M461.128,244.262 L459.926,243.713 L460.073,243.392 L460.403,243.419 L460.438,243.102 L459.599,242.718 L459.38,242.947 L459.626,243.188 L459.48,243.509 L458.338,242.988 L458.485,242.666 L458.809,242.686 L460.658,240.84 L461.268,241.105 L461.059,243.714 L461.275,243.941 L461.128,244.262 L461.128,244.262 Z" id="Fill-368" fill="#27292F"></path>
            <path d="M463.025,243.384 C463.324,243.52 463.564,243.456 463.679,243.202 C463.778,242.987 463.705,242.766 463.471,242.659 L463.161,242.518 L462.81,243.285 L463.025,243.384 Z M461.428,244.011 L461.763,244.027 L462.575,242.25 L462.343,242.007 L462.49,241.686 L463.368,242.064 L463.655,242.195 C464.275,242.478 464.521,242.901 464.286,243.416 C464.123,243.771 463.848,243.924 463.532,243.935 C463.551,244.003 463.575,244.101 463.579,244.253 L463.595,244.887 L463.809,245.099 L463.662,245.42 L462.963,245.101 L462.965,244.256 C462.968,243.91 462.961,243.834 462.761,243.742 L462.629,243.682 L462.349,244.294 L462.569,244.532 L462.422,244.854 L461.281,244.332 L461.428,244.011 L461.428,244.011 Z" id="Fill-369" fill="#27292F"></path>
            <path d="M465.243,245.594 C465.61,245.761 465.954,245.658 466.265,244.978 C466.555,244.343 466.443,244.017 466.073,243.848 L465.733,243.693 L464.93,245.451 L465.243,245.594 Z M465.147,243.425 L464.915,243.182 L465.062,242.861 L465.94,243.239 L466.299,243.403 C467.055,243.749 467.297,244.398 466.909,245.249 C466.52,246.1 465.792,246.393 465.025,246.043 L463.853,245.507 L464,245.186 L464.335,245.202 L465.147,243.425 L465.147,243.425 Z" id="Fill-370" fill="#27292F"></path>
            <polyline id="Fill-371" fill="#CFCDC8" points="473.016 258.278 438.909 242.696 439.386 241.653 473.493 257.235 473.016 258.278"></polyline>
            <g id="Group-547" transform="translate(135.000000, 71.000000)">
                <mask id="mask-12" fill="white">
                    <use xlink:href="#path-11"></use>
                </mask>
                <g id="Clip-546"></g>
                <polygon id="Fill-545" fill="#A6D9E0" mask="url(#mask-12)" points="0.456 8.358 87.044 8.358 87.044 0.031 0.456 0.031"></polygon>
            </g>
            <polyline id="Fill-548" fill="#95D2DC" points="218.182 66.995 213.446 65.152 312.754 64.611 312.322 66.482 218.182 66.995"></polyline>
            <polyline id="Fill-549" fill="#A6D9E0" points="133.334 67.458 132.355 65.594 213.446 65.152 218.182 66.995 133.334 67.458"></polyline>
            <polyline id="Fill-550" fill="#95D2DC" points="201.733 60.594 196.733 58.648 314.276 58.008 313.82 59.983 201.733 60.594"></polyline>
            <polyline id="Fill-551" fill="#A6D9E0" points="129.934 60.985 128.9 59.018 196.733 58.648 201.733 60.594 129.934 60.985"></polyline>
            <polyline id="Fill-552" fill="#95D2DC" points="184.362 53.834 179.076 51.776 315.883 51.031 315.402 53.12 184.362 53.834"></polyline>
            <polyline id="Fill-553" fill="#A6D9E0" points="126.342 54.15 125.25 52.07 179.076 51.776 184.362 53.834 126.342 54.15"></polyline>
            <polyline id="Fill-554" fill="#95D2DC" points="317.399 78.389 325.461 47.983 388.714 47.639 373.139 78.086 317.399 78.389"></polyline>
            <polyline id="Fill-555" fill="#95D2DC" points="165.982 46.68 160.384 44.502 317.586 43.645 317.076 45.857 165.982 46.68"></polyline>
            <polyline id="Fill-556" fill="#A6D9E0" points="122.543 46.917 121.385 44.714 160.384 44.502 165.982 46.68 122.543 46.917"></polyline>
            <polyline id="Fill-557" fill="#95D2DC" points="109.697 22.468 108.308 19.824 323.346 18.652 322.734 21.307 109.697 22.468"></polyline>
            <polyline id="Fill-558" fill="#95D2DC" points="326.33 44.707 333.252 18.598 403.767 18.214 390.393 44.358 326.33 44.707"></polyline>
            <polyline id="Fill-559" fill="#95D2DC" points="146.505 39.101 140.567 36.79 319.39 35.816 318.849 38.162 146.505 39.101"></polyline>
            <polyline id="Fill-560" fill="#A6D9E0" points="118.516 39.253 117.289 36.917 140.567 36.79 146.505 39.101 118.516 39.253"></polyline>
            <polyline id="Fill-561" fill="#95D2DC" points="125.832 31.055 119.521 28.6 321.307 27.5 320.732 29.994 125.832 31.055"></polyline>
            <polyline id="Fill-562" fill="#A6D9E0" points="114.242 31.119 112.938 28.635 119.521 28.6 125.832 31.055 114.242 31.119"></polyline>
        </g>
    </g>
</svg>