<?xml version="1.0" encoding="UTF-8"?>
<svg width="307px" height="356px" viewBox="0 0 307 356" version="1.1" xmlns="http://www.w3.org/2000/svg" xmlns:xlink="http://www.w3.org/1999/xlink">
    <!-- Generator: Sketch 42 (36781) - http://www.bohemiancoding.com/sketch -->
    <title>developer</title>
    <desc>Created with Sketch.</desc>
    <defs></defs>
    <g id="Page-1" stroke="none" stroke-width="1" fill="none" fill-rule="evenodd">
        <g id="developer" stroke="#979797" fill="#2F537B">
            <path d="M257.633,258.785 C231.105,258.785 209.523,280.367 209.523,306.89 C209.523,333.418 231.105,355 257.633,355 C284.16,355 305.738,333.418 305.738,306.89 C305.738,280.367 284.16,258.785 257.633,258.785 Z M257.633,339 C239.926,339 225.523,324.597 225.523,306.89 C225.523,289.187 239.926,274.785 257.633,274.785 C275.336,274.785 289.738,289.187 289.738,306.89 C289.738,324.597 275.336,339 257.633,339 Z M120.82,210.086 L248.164,210.086 C252.582,210.086 255.77,213.695 255.77,218.113 L255.77,236.3 C255.77,240.718 252.188,244.3 247.77,244.3 C243.352,244.3 239.77,240.718 239.77,236.3 L239.77,226.086 L128.57,226.086 L128.57,294.886 L179.887,294.886 C184.305,294.886 187.887,298.468 187.887,302.886 C187.887,307.304 184.305,310.886 179.887,310.886 L120.82,310.886 C116.402,310.886 112.57,307.445 112.57,303.027 L112.57,218.113 C112.57,213.695 116.402,210.086 120.82,210.086 Z M198.605,334.086 C198.605,338.503 195.023,342.086 190.605,342.086 L110.43,342.086 C106.012,342.086 102.43,338.503 102.43,334.086 C102.43,329.668 106.012,326.086 110.43,326.086 L190.605,326.086 C195.023,326.086 198.605,329.668 198.605,334.086 Z M265.633,306.886 C265.633,311.308 262.051,314.886 257.633,314.886 L257.629,314.886 C253.211,314.886 249.629,311.308 249.629,306.886 C249.629,302.468 253.211,298.89 257.629,298.89 C262.047,298.89 265.633,302.468 265.633,306.886 Z M35.719,199.265 L18.617,291.683 L77.773,291.683 C82.191,291.683 85.773,295.265 85.773,299.683 C85.773,304.105 82.191,307.683 77.773,307.683 L9,307.683 C6.625,307.683 4.371,306.539 2.852,304.711 C1.328,302.882 0.699,300.382 1.133,298.046 L19.988,196.257 C24.605,171.328 43.945,152.769 71.719,146.609 C86.188,143.402 101.859,143.949 115.859,148.148 C131.148,152.734 143.582,161.261 151.812,172.8 C154.379,176.398 153.543,181.394 149.945,183.961 C146.348,186.527 141.352,185.691 138.785,182.093 C126.473,164.824 100.32,156.656 75.184,162.23 C64.957,164.496 40.637,172.726 35.719,199.265 Z M90.664,127.964 C105.621,127.964 119.664,121.937 130.211,110.988 C139.309,101.543 149.922,84.086 148.816,54.546 C147.625,22.796 124.355,5.539 100.363,1.312 C96.02,0.336 85.762,0.601 83.441,0.921 C58.602,4.367 33.738,21.703 32.512,54.546 C31.406,84.086 42.016,101.546 51.113,110.988 C61.66,121.937 75.703,127.964 90.664,127.964 Z M90.664,16.32 C103.422,16.832 116.383,21.863 124.512,31.886 C114.652,35.836 102.941,38.144 90.664,38.476 C78.383,38.144 66.672,35.836 56.812,31.886 C64.941,21.863 77.902,16.832 90.664,16.32 Z M48.5,55.144 C48.617,51.984 49.039,49.027 49.719,46.273 C61.66,51.23 75.793,54.109 90.461,54.476 L90.863,54.476 C105.531,54.109 119.664,51.23 131.605,46.273 C132.285,49.031 132.707,51.984 132.828,55.144 C133.535,74.078 128.648,89.55 118.688,99.886 C111.188,107.675 101.234,111.968 90.664,111.968 C80.094,111.968 70.141,107.675 62.637,99.886 C52.68,89.55 47.789,74.078 48.5,55.144 Z" id="Fill-1"></path>
        </g>
    </g>
</svg>