<?xml version="1.0" encoding="UTF-8"?>
<svg width="229px" height="55px" viewBox="0 0 229 55" version="1.1" xmlns="http://www.w3.org/2000/svg" xmlns:xlink="http://www.w3.org/1999/xlink">
    <!-- Generator: Sketch 42 (36781) - http://www.bohemiancoding.com/sketch -->
    <title>logo</title>
    <desc>Created with Sketch.</desc>
    <defs></defs>
    <g id="Page-1" stroke="none" stroke-width="1" fill="none" fill-rule="evenodd">
        <g id="logo">
            <path d="M46.4986053,30.228959 C46.0254805,30.0802229 45.5220694,30 44.9999681,30 L5.00003191,30 C2.24553095,30 0,32.2385763 0,35 C0,37.7558048 2.23859054,40 5.00003191,40 L44.9999681,40 C45.5216332,40 46.025043,39.9197085 46.4984014,39.77078 C46.9714551,39.9197085 47.4745923,40 47.9960486,40 L73.0039514,40 C75.7631929,40 78,37.7558048 78,35 C78,32.2385763 75.7573497,30 73.0039514,30 L47.9960486,30 C47.4743632,30 46.9713532,30.0802229 46.4986053,30.228959 Z M31.5013947,15.228959 C31.0286468,15.0802229 30.5256368,15 30.0039514,15 L4.99604858,15 C2.24265032,15 0,17.2385763 0,20 C0,22.7558048 2.23680714,25 4.99604858,25 L30.0039514,25 C30.5254077,25 31.0285449,24.9197085 31.5015986,24.77078 C31.974957,24.9197085 32.4783668,25 33.0000319,25 L72.9999681,25 C75.7614095,25 78,22.7558048 78,20 C78,17.2385763 75.754469,15 72.9999681,15 L33.0000319,15 C32.4779306,15 31.9745195,15.0802229 31.5013947,15.228959 Z M0,5 C0,2.23857625 2.24553095,0 5.00003191,0 L44.9999681,0 C47.7614095,0 50,2.24419519 50,5 C50,7.76142375 47.754469,10 44.9999681,10 L5.00003191,10 C2.23859054,10 0,7.75580481 0,5 Z M78,50 C78,52.7558048 75.7614095,55 72.9999681,55 L33.0000319,55 C30.245531,55 28,52.7614237 28,50 C28,47.2441952 30.2385905,45 33.0000319,45 L72.9999681,45 C75.754469,45 78,47.2385763 78,50 Z" id="Combined-Shape" fill="#108EE9"></path>
            <text id="DevStack" font-family="MSReferenceSansSerif, MS Reference Sans Serif" font-size="30" font-weight="normal" fill="#434343">
                <tspan x="87" y="40">DevStack</tspan>
            </text>
        </g>
    </g>
</svg>